<svg width="20" height="18" viewBox="0 0 20 18" fill="none" xmlns="http://www.w3.org/2000/svg"><mask id="a" maskUnits="userSpaceOnUse" x="0" y="0" width="20" height="18" fill="#000"><path fill="#fff" d="M0 0h20v18H0z"/><path d="M2.363 4.308c-1.968 3.957 4.56 9.484 7.66 11.49 3.284-1.641 9.438-7.343 7.661-11.49-1.641-3.83-6.838-2.213-7.66 0-.547-2.19-5.744-3.855-7.66 0Z"/></mask><path d="M2.363 4.308c-1.968 3.957 4.56 9.484 7.66 11.49 3.284-1.641 9.438-7.343 7.661-11.49-1.641-3.83-6.838-2.213-7.66 0-.547-2.19-5.744-3.855-7.66 0Z" fill="#fff"/><path d="m10.024 15.798-.815 1.26a1.5 1.5 0 0 0 1.486.082l-.671-1.342Zm-7.66-11.49L1.02 3.64l1.343.668Zm7.66 0-1.456.363a1.5 1.5 0 0 0 2.862.16l-1.406-.523Zm7.66 0-1.379.59 1.379-.59Zm-6.846 10.23c-1.463-.946-3.743-2.735-5.393-4.714C4.618 8.834 4.012 7.868 3.71 7c-.295-.85-.266-1.497-.005-2.023L1.02 3.64C.298 5.092.404 6.62.877 7.982c.466 1.343 1.316 2.627 2.264 3.763 1.896 2.275 4.43 4.253 6.068 5.313l1.63-2.52ZM3.707 4.977c.612-1.23 1.685-1.592 2.808-1.447.58.075 1.116.287 1.508.554.416.282.53.524.546.588l2.91-.727c-.256-1.03-.997-1.817-1.77-2.342A6.554 6.554 0 0 0 6.9.554c-2.09-.27-4.574.46-5.88 3.086l2.686 1.336Zm7.724-.146c.055-.148.255-.436.716-.732a3.918 3.918 0 0 1 1.588-.568c1.128-.142 2.08.224 2.571 1.368l2.758-1.181C17.912 1.03 15.446.29 13.36.553a6.917 6.917 0 0 0-2.833 1.02c-.796.51-1.553 1.254-1.91 2.212L11.43 4.83Zm4.875.068c.26.607.27 1.347-.03 2.253-.304.917-.897 1.912-1.693 2.902-1.603 1.995-3.797 3.687-5.23 4.404l1.342 2.683c1.85-.925 4.376-2.905 6.227-5.208.931-1.159 1.748-2.47 2.202-3.839.457-1.38.568-2.91-.06-4.376l-2.758 1.181Z" fill="#202020" mask="url(#a)"/></svg>